# xmcd
#
# Track frame offsets: 
#        150
#        20345
#        35567
#        62310
#        83942
#        103140
#        122420
#        154545
#        157537
#        176180
#        203202
#        224180
#
# Disc length: 3265 seconds
#
# Revision: 1
# Processed by: cddbd v1.4PL0 Copyright (c) Steve Scherf et al.
# Submitted via: ExactAudioCopy v0.90b4
#
DISCID=990cbf0c
DTITLE=Anthony Gomes - Unity
DYEAR=2002
DGENRE=Modern Electric Blues
TTITLE0=When The Walls Come Down
TTITLE1=Upside
TTITLE2=Darkest Before The Dawn
TTITLE3=Do Watchya Do
TTITLE4=If You Could Rule The World
TTITLE5=Blindog
TTITLE6=Going Down Slow
TTITLE7=Unity (acoustiphonic lo-fi)
TTITLE8=Unity
TTITLE9=Trash Talkin' Jive
TTITLE10=Lonely At The Bottom
TTITLE11=Bad For You
EXTD=YEAR: 2002 ID3G: 0
EXTT0=
EXTT1=
EXTT2=
EXTT3=
EXTT4=
EXTT5=
EXTT6=
EXTT7=
EXTT8=
EXTT9=
EXTT10=
EXTT11=
PLAYORDER=
